<svg width="72" height="64" viewBox="0 0 72 64" fill="none" xmlns="http://www.w3.org/2000/svg">
<path d="M69.718 41.3496C57.697 41.3377 45.9296 44.8069 35.8375 51.338C33.6929 49.9503 31.4654 48.6949 29.1677 47.5788C31.5387 45.8531 34.015 44.2769 36.5823 42.8595C36.6959 42.8115 36.8048 42.7529 36.9074 42.6844C46.9711 37.1968 58.2554 34.3338 69.718 34.3598C70.237 34.3598 70.7346 34.1537 71.1016 33.7867C71.4685 33.4198 71.6746 32.9221 71.6746 32.4032C71.6746 31.8843 71.4685 31.3866 71.1016 31.0197C70.7346 30.6528 70.237 30.4466 69.718 30.4466C58.6513 30.4354 47.7295 32.9642 37.7939 37.8384V16.3594C37.7974 16.3117 37.8012 16.2641 37.8012 16.2156C37.8011 14.444 38.1836 12.6932 38.9226 11.0831C39.6617 9.47305 40.7397 8.04157 42.0831 6.88662C43.4265 5.73168 45.0035 4.88052 46.7062 4.39136C48.409 3.9022 50.1973 3.78659 51.9488 4.05243C51.4255 6.70978 50.2505 9.1956 48.5294 11.2868C46.8082 13.378 44.5948 15.0091 42.0877 16.0337C41.8501 16.1315 41.6341 16.2751 41.452 16.4564C41.2699 16.6376 41.1252 16.853 41.0264 17.0902C40.9275 17.3273 40.8763 17.5816 40.8757 17.8386C40.8751 18.0955 40.9252 18.3501 41.0229 18.5877C41.1207 18.8253 41.2644 19.0413 41.4456 19.2234C41.6269 19.4055 41.8423 19.5501 42.0794 19.649C42.3166 19.7479 42.5709 19.7991 42.8278 19.7996C43.0848 19.8002 43.3393 19.7502 43.5769 19.6524C47.014 18.2473 49.9988 15.9246 52.2053 12.9381C54.4119 9.95164 55.7552 6.41619 56.0886 2.71798L56.235 1.11749L54.6934 0.663035C51.1267 -0.38963 47.3066 -0.183993 43.8735 1.24546C40.4405 2.67492 37.6033 5.24128 35.8377 8.51418C34.072 5.24124 31.2347 2.67489 27.8015 1.24543C24.3683 -0.184016 20.5481 -0.389641 16.9813 0.663035L15.4397 1.11749L15.5861 2.71798C15.9195 6.41619 17.2628 9.95164 19.4693 12.9381C21.6759 15.9246 24.6607 18.2473 28.0978 19.6524C28.5776 19.8499 29.1163 19.8487 29.5953 19.649C30.0742 19.4493 30.4543 19.0675 30.6517 18.5877C30.8492 18.1078 30.848 17.5691 30.6483 17.0902C30.4486 16.6112 30.0669 16.2312 29.587 16.0337C27.0799 15.0091 24.8664 13.378 23.1453 11.2868C21.4242 9.1956 20.2492 6.70978 19.7259 4.05243C21.4778 3.78654 23.2665 3.90225 24.9695 4.39166C26.6725 4.88106 28.2498 5.73261 29.5932 6.88803C30.9367 8.04344 32.0147 9.47546 32.7534 11.0861C33.4922 12.6967 33.8743 14.4479 33.8735 16.2199C33.8735 16.2684 33.8773 16.316 33.8808 16.3636V37.8383C23.9382 32.9836 13.021 30.4559 1.95659 30.4466C1.43767 30.4466 0.940004 30.6528 0.573072 31.0197C0.20614 31.3866 0 31.8843 0 32.4032C0 32.9221 0.20614 33.4198 0.573072 33.7867C0.940004 34.1537 1.43767 34.3598 1.95659 34.3598C12.2709 34.3687 22.4518 36.6908 31.7499 41.155C29.4401 42.57 27.2092 44.1098 25.067 45.7676C17.7145 42.8388 9.8709 41.3393 1.95659 41.3497C1.43767 41.3497 0.940004 41.5558 0.573072 41.9227C0.20614 42.2897 0 42.7873 0 43.3062C0 43.8252 0.20614 44.3228 0.573072 44.6898C0.940004 45.0567 1.43767 45.2628 1.95659 45.2628C17.9811 45.2628 33.0499 51.7059 44.3867 63.405C44.7478 63.7776 45.2422 63.9916 45.761 63.9998C46.2799 64.0079 46.7808 63.8096 47.1534 63.4485C47.5261 63.0874 47.7401 62.593 47.7482 62.0742C47.7564 61.5553 47.5581 61.0545 47.197 60.6818C44.7631 58.1694 42.1314 55.8566 39.3272 53.7654C48.4841 48.1933 58.999 45.2514 69.718 45.2628C70.237 45.2628 70.7346 45.0567 71.1016 44.6898C71.4685 44.3228 71.6746 43.8252 71.6746 43.3062C71.6746 42.7873 71.4685 42.2897 71.1016 41.9227C70.7346 41.5558 70.237 41.3497 69.718 41.3497V41.3496Z" fill="#000000" fill-opacity="0.8"/>
</svg>
