<svg width="24" height="18" viewBox="0 0 24 18" fill="none" xmlns="http://www.w3.org/2000/svg">
<path d="M0.749981 2.24999H23.25C23.664 2.24999 23.9999 1.91396 23.9999 1.50001C23.9999 1.08599 23.6639 0.750027 23.25 0.750027H0.749981C0.336026 0.750027 0 1.08599 0 1.50001C0 1.91402 0.336026 2.24999 0.749981 2.24999Z" fill="black" />
<path d="M23.25 8.25002H0.749981C0.335964 8.25002 0 8.58604 0 9C0 9.41395 0.336026 9.74998 0.749981 9.74998H23.25C23.664 9.74998 23.9999 9.41395 23.9999 9C23.9999 8.58604 23.664 8.25002 23.25 8.25002Z" fill="black" />
<path d="M23.25 15.75H0.749981C0.335964 15.75 0 16.086 0 16.5C0 16.914 0.336026 17.25 0.749981 17.25H23.25C23.664 17.25 23.9999 16.9139 23.9999 16.5C24 16.086 23.664 15.75 23.25 15.75Z" fill="black" />
</svg>
